<?xml version="1.0" standalone="no"?>
<!DOCTYPE svg PUBLIC "-//W3C//DTD SVG 20010904//EN"
 "http://www.w3.org/TR/2001/REC-SVG-20010904/DTD/svg10.dtd">
<svg version="1.0" xmlns="http://www.w3.org/2000/svg"
 width="520.000000pt" height="202.000000pt" viewBox="0 0 520.000000 202.000000"
 preserveAspectRatio="xMidYMid meet">

<g transform="translate(0.000000,202.000000) scale(0.100000,-0.100000)"
fill="#000000" stroke="none">
<path d="M300 1790 c-12 -12 -20 -33 -20 -55 0 -24 -5 -35 -15 -35 -9 0 -15
-9 -15 -25 0 -16 6 -25 15 -25 12 0 15 -16 15 -80 l0 -80 30 0 30 0 0 80 c0
79 0 80 25 80 20 0 25 5 25 25 0 20 -5 25 -26 25 -22 0 -25 4 -22 28 2 19 9
28 26 30 16 3 22 10 22 28 0 21 -5 24 -35 24 -22 0 -43 -8 -55 -20z"/>
<path d="M1430 1783 c0 -28 4 -31 41 -37 108 -17 198 -107 215 -215 6 -37 9
-41 37 -41 30 0 30 0 23 46 -18 136 -133 252 -269 270 l-47 7 0 -30z"/>
<path d="M3455 1796 c-101 -44 -125 -178 -46 -257 65 -65 157 -65 222 0 124
124 -15 327 -176 257z m131 -31 c19 -15 19 -15 -5 -35 -33 -28 -46 -25 -70 15
l-20 35 37 0 c21 0 47 -7 58 -15z m-98 -34 l22 -38 -38 -7 c-54 -9 -82 -7 -82
4 0 11 59 80 69 80 4 0 17 -17 29 -39z m162 -56 c0 -19 -4 -20 -45 -15 -25 3
-47 8 -48 12 -1 4 14 18 33 31 31 22 36 23 48 9 6 -9 12 -25 12 -37z m-120
-15 c0 -5 -10 -14 -22 -21 -13 -6 -38 -25 -56 -43 -32 -30 -34 -30 -48 -12 -8
11 -14 30 -14 43 0 24 12 29 80 36 19 2 41 5 48 5 6 1 12 -2 12 -8z m120 -44
c0 -15 -37 -66 -49 -66 -4 0 -12 18 -18 40 l-10 40 38 0 c26 0 39 -4 39 -14z
m-92 -35 c7 -21 12 -43 12 -50 0 -14 -72 -14 -104 0 -23 11 -24 14 -11 32 16
23 64 57 81 57 6 0 16 -17 22 -39z"/>
<path d="M4735 1796 c-67 -30 -105 -106 -91 -181 7 -37 59 -105 80 -105 12 0
36 95 36 143 0 16 7 30 16 34 25 9 35 -9 24 -47 -17 -60 33 -81 59 -24 24 54
-1 114 -49 114 -56 0 -103 -57 -81 -98 6 -11 7 -22 4 -26 -25 -24 -48 33 -33
80 38 114 226 75 207 -43 -9 -54 -43 -85 -89 -81 -31 3 -38 0 -42 -18 -3 -12
-9 -30 -13 -39 -6 -16 -1 -17 46 -13 93 9 146 67 146 158 0 63 -16 95 -67 133
-33 25 -113 32 -153 13z"/>
<path d="M4012 1791 c-8 -4 -12 -19 -10 -32 2 -19 9 -24 33 -24 27 0 30 3 30
30 0 22 -5 31 -20 33 -11 1 -26 -2 -33 -7z"/>
<path d="M2126 1759 c-42 -33 -29 -82 27 -102 9 -4 17 -15 17 -26 0 -13 12
-27 30 -36 52 -27 30 -75 -34 -75 -29 0 -58 26 -54 48 2 9 14 22 28 29 25 12
25 13 3 13 -25 0 -63 -32 -63 -52 1 -53 94 -76 144 -37 33 26 33 59 0 99 l-27
31 22 23 c22 24 28 61 10 71 -6 5 -4 12 8 21 16 12 12 13 -33 14 -37 0 -59 -6
-78 -21z m68 -18 c21 -23 18 -60 -7 -75 -15 -9 -22 -7 -38 13 -19 23 -25 61
-12 74 12 13 40 7 57 -12z"/>
<path d="M2330 1755 c0 -20 -5 -25 -25 -25 -14 0 -25 -4 -25 -10 0 -5 11 -10
25 -10 20 0 25 -5 25 -25 0 -14 5 -25 10 -25 6 0 10 11 10 25 0 20 5 25 25 25
14 0 25 5 25 10 0 6 -11 10 -25 10 -20 0 -25 5 -25 25 0 14 -4 25 -10 25 -5 0
-10 -11 -10 -25z"/>
<path d="M981 1731 c-12 -12 -21 -31 -21 -42 0 -19 -4 -21 -32 -15 -17 3 -47
18 -66 32 -25 20 -36 24 -45 15 -9 -9 -8 -19 5 -41 9 -17 13 -30 8 -30 -18 0
-10 -29 12 -44 12 -9 17 -16 10 -16 -21 0 -13 -19 14 -33 29 -15 24 -23 -24
-37 l-27 -7 28 -12 c102 -40 227 34 244 145 3 21 13 47 21 57 15 16 14 17 -4
11 -16 -7 -17 -6 -6 8 11 14 9 16 -10 16 -13 1 -37 4 -55 7 -24 6 -36 2 -52
-14z"/>
<path d="M2745 1705 c-14 -13 -25 -36 -25 -50 0 -14 11 -37 25 -50 39 -40 86
-30 114 23 23 43 -20 102 -75 102 -8 0 -26 -11 -39 -25z"/>
<path d="M2933 1718 c-32 -15 -48 -60 -32 -90 28 -53 75 -63 114 -23 14 13 25
36 25 50 0 30 -41 75 -67 74 -10 0 -28 -5 -40 -11z"/>
<path d="M4198 1696 c-16 -8 -28 -11 -28 -5 0 5 -16 9 -35 9 l-35 0 0 -100 0
-100 35 0 35 0 0 63 c0 73 9 90 41 85 22 -3 24 -8 27 -75 l3 -73 34 0 35 0 0
79 c0 60 -4 84 -17 99 -24 28 -62 35 -95 18z"/>
<path d="M1430 1671 c0 -25 4 -30 37 -36 48 -9 99 -60 108 -108 6 -33 11 -37
36 -37 35 0 38 24 10 85 -23 49 -64 89 -113 109 -58 25 -78 21 -78 -13z"/>
<path d="M4000 1600 l0 -100 35 0 35 0 0 100 0 100 -35 0 -35 0 0 -100z"/>
<path d="M1448 1569 c-36 -21 -16 -79 27 -79 44 0 63 60 26 80 -24 12 -31 12
-53 -1z"/>
<path d="M189 1141 c-26 -26 -30 -37 -25 -64 3 -18 7 -51 9 -75 6 -73 61 -128
137 -137 25 -2 62 -7 82 -11 31 -5 41 -2 63 21 29 28 29 33 6 139 -19 86 -53
120 -137 136 -27 5 -61 12 -76 16 -22 5 -33 0 -59 -25z m172 -61 c21 -12 26
-40 7 -40 -6 0 -20 8 -30 17 -14 12 -24 14 -35 7 -26 -16 -17 -28 31 -42 36
-10 47 -19 52 -39 13 -51 -64 -83 -114 -47 -25 17 -29 44 -7 44 8 0 15 -4 15
-10 0 -14 37 -31 54 -24 33 13 18 41 -28 53 -30 7 -47 18 -51 32 -14 44 54 76
106 49z"/>
<path d="M1570 1154 c0 -8 -13 -29 -30 -46 -35 -35 -40 -68 -10 -68 18 0 20
-7 20 -70 0 -62 3 -74 25 -95 24 -25 57 -31 103 -19 16 5 22 14 22 36 0 26 -2
28 -20 18 -14 -8 -26 -8 -40 0 -17 9 -20 21 -20 70 l0 60 35 0 c31 0 35 3 35
25 0 22 -4 25 -35 25 -34 0 -35 1 -35 40 0 36 -2 40 -25 40 -16 0 -25 -6 -25
-16z"/>
<path d="M2750 1010 l0 -161 43 26 c23 14 81 49 129 78 48 29 88 54 88 57 0 3
-40 28 -88 57 -48 29 -106 64 -129 78 l-43 26 0 -161z"/>
<path d="M4122 1088 c-17 -40 -46 -110 -66 -155 l-35 -83 64 0 65 0 0 32 c0
17 -8 41 -17 52 -17 20 -17 20 0 7 15 -12 17 -11 17 13 0 14 5 26 10 26 6 0
10 -7 10 -15 0 -9 6 -12 18 -8 14 5 13 3 -3 -10 -26 -20 -14 -32 17 -17 22 11
22 10 4 -4 -11 -9 -23 -16 -28 -16 -4 0 -8 -13 -8 -30 l0 -30 65 0 64 0 -33
78 c-89 206 -101 232 -107 232 -3 0 -20 -33 -37 -72z"/>
<path d="M1015 1115 c-23 -22 -36 -63 -17 -51 4 2 14 1 22 -4 11 -7 11 -14 1
-38 -7 -17 -21 -38 -32 -48 -18 -16 -19 -15 -27 7 -5 13 -13 44 -17 69 -9 58
-21 80 -44 80 -25 0 -100 -60 -94 -76 4 -10 10 -11 23 -4 19 10 29 -8 61 -115
14 -49 36 -75 61 -75 27 0 120 96 146 151 12 25 22 57 22 71 0 57 -62 77 -105
33z"/>
<path d="M4665 1105 c-15 -14 -25 -36 -25 -53 0 -55 89 -164 145 -178 42 -10
108 39 154 116 28 47 27 85 -4 115 -30 31 -73 32 -109 4 l-26 -20 -26 20 c-36
28 -79 27 -109 -4z"/>
<path d="M2080 1010 l0 -100 65 0 c53 0 68 4 85 22 24 26 25 37 5 66 -12 17
-13 26 -5 42 9 17 8 27 -5 46 -14 21 -23 24 -80 24 l-65 0 0 -100z m99 61 c23
-15 5 -41 -29 -41 -25 0 -30 4 -30 25 0 19 5 25 23 25 12 0 28 -4 36 -9z m16
-96 c0 -16 -8 -21 -37 -23 -35 -3 -38 -1 -38 23 0 24 3 26 38 23 29 -2 37 -7
37 -23z"/>
<path d="M2290 1080 c0 -5 18 -10 40 -10 22 0 40 5 40 10 0 6 -18 10 -40 10
-22 0 -40 -4 -40 -10z"/>
<path d="M3360 1070 c0 -5 9 -10 19 -10 26 0 91 -77 91 -107 0 -15 -8 -27 -22
-33 -17 -6 -6 -9 42 -8 36 0 55 3 43 5 -38 7 -30 52 14 88 21 17 47 33 58 37
11 3 -7 6 -40 6 -33 0 -52 -2 -42 -5 23 -6 22 -18 -5 -35 -21 -14 -24 -13 -46
16 -19 26 -20 32 -7 34 8 2 15 8 15 13 0 5 -27 9 -60 9 -33 0 -60 -4 -60 -10z"/>
<path d="M3630 1015 c0 -63 14 -72 29 -17 16 55 14 72 -9 72 -18 0 -20 -7 -20
-55z"/>
<path d="M2286 1039 c-32 -25 -37 -86 -8 -112 31 -28 112 -18 112 14 0 4 -19
7 -41 6 -26 -1 -44 3 -46 11 -3 8 10 12 46 12 45 0 51 3 51 20 0 26 -43 70
-68 70 -11 0 -31 -9 -46 -21z m64 -24 c11 -13 8 -15 -19 -15 -30 0 -39 9 -24
23 11 11 30 8 43 -8z"/>
<path d="M3630 930 c0 -5 5 -10 10 -10 6 0 10 5 10 10 0 6 -4 10 -10 10 -5 0
-10 -4 -10 -10z"/>
<path d="M966 514 c-38 -37 1 -87 50 -65 30 13 33 56 5 71 -27 14 -37 13 -55
-6z"/>
<path d="M1539 500 c-17 -16 -28 -34 -24 -40 10 -16 44 -11 65 10 22 22 50 17
50 -11 0 -13 -12 -21 -41 -29 -51 -14 -79 -42 -79 -78 0 -36 28 -62 65 -62 16
0 37 7 47 17 17 15 19 15 36 -1 18 -15 20 -15 37 4 14 16 16 23 7 32 -7 7 -12
41 -12 78 0 71 -4 81 -37 99 -39 20 -82 13 -114 -19z m91 -125 c0 -29 -31 -50
-48 -33 -23 23 -5 58 30 58 12 0 18 -8 18 -25z"/>
<path d="M2840 522 c0 -4 27 -34 60 -67 l60 -59 0 56 c0 54 -1 56 -31 67 -37
13 -89 15 -89 3z"/>
<path d="M3431 513 l-21 -18 37 -49 c55 -72 63 -71 63 13 l0 71 -29 0 c-16 0
-38 -8 -50 -17z"/>
<path d="M2781 493 c-18 -14 -40 -41 -47 -59 -14 -34 -19 -84 -8 -84 3 0 33
21 67 48 33 26 65 50 71 54 7 5 0 19 -19 37 l-30 31 -34 -27z"/>
<path d="M2970 403 l0 -103 30 0 c25 0 30 4 36 35 9 52 -4 102 -36 138 l-29
32 -1 -102z"/>
<path d="M2110 442 c-15 -12 -24 -33 -27 -64 -5 -40 -2 -50 20 -72 39 -39 127
-33 111 7 -5 13 -10 14 -26 6 -15 -8 -27 -8 -45 0 -21 10 -24 17 -21 54 3 41
4 42 38 42 32 0 37 -4 62 -54 14 -30 34 -61 44 -68 41 -30 134 -5 134 36 0 23
-27 48 -62 56 -16 4 -28 14 -28 22 0 12 9 14 45 9 50 -8 59 3 23 28 -44 31
-108 7 -108 -40 0 -20 9 -29 45 -45 46 -21 56 -35 30 -45 -36 -14 -65 6 -89
60 -36 82 -95 109 -146 68z"/>
<path d="M4065 440 c3 -11 2 -20 -3 -20 -5 0 -21 -12 -36 -26 -26 -27 -36 -77
-16 -89 8 -5 80 11 138 31 11 3 9 12 -7 40 -12 19 -21 37 -21 40 0 8 69 4 95
-6 14 -5 23 -14 20 -20 -9 -15 -45 -12 -51 5 -6 14 -44 22 -44 10 0 -19 33
-66 44 -62 6 3 40 13 74 22 34 10 59 22 56 27 -15 24 -96 49 -151 47 -37 -2
-58 1 -61 9 -2 7 -13 12 -24 12 -15 0 -18 -5 -13 -20z m30 -61 c8 -24 7 -24
-22 -33 -25 -8 -29 3 -13 35 14 25 27 24 35 -2z"/>
<path d="M3566 419 c-28 -33 -34 -59 -13 -59 26 0 87 21 87 31 0 14 -31 59
-40 59 -5 0 -20 -14 -34 -31z"/>
<path d="M936 417 c-8 -12 -17 -32 -20 -44 -9 -28 -62 -73 -87 -73 -14 0 -19
-7 -19 -25 0 -33 31 -33 96 0 l49 26 36 -42 c29 -32 41 -40 58 -34 11 3 21 10
21 14 0 11 -57 98 -69 105 -24 15 -8 26 39 26 50 0 55 4 44 33 -4 11 -15 14
-39 10 -20 -3 -45 1 -64 10 -30 15 -32 15 -45 -6z"/>
<path d="M3387 383 c-10 -9 -8 -61 2 -67 12 -8 84 18 89 32 2 7 -12 19 -32 27
-39 17 -50 18 -59 8z"/>
<path d="M2763 354 c-18 -14 -33 -31 -33 -38 0 -17 57 -82 65 -75 3 4 5 36 3
73 l-3 66 -32 -26z"/>
<path d="M3540 320 c0 -17 44 -80 56 -80 11 0 44 42 44 55 0 8 -65 35 -85 35
-8 0 -15 -5 -15 -10z"/>
<path d="M3454 275 c-15 -20 -25 -37 -23 -39 12 -11 50 -26 63 -26 12 0 16 11
16 50 0 61 -17 66 -56 15z"/>
<path d="M1464 271 c28 -31 97 -61 139 -61 43 0 96 20 115 42 11 14 9 14 -25
2 -61 -21 -131 -17 -192 12 -49 22 -53 23 -37 5z"/>
<path d="M1723 283 c9 -2 17 -13 17 -24 0 -11 5 -17 10 -14 6 3 10 15 10 26 0
14 -7 19 -27 18 -17 -1 -21 -3 -10 -6z"/>
<path d="M2810 260 c0 -34 23 -50 70 -50 45 0 130 47 130 72 0 4 -45 8 -100 8
l-100 0 0 -30z"/>
</g>
</svg>
